#!OML:ASF I:\Actors\actors\Patient Classification 2\Patient 1\Session 1\actor1.ASF
:FULLY-SPECIFIED
:DEGREES
226
root -0.696668 18.698 5.80447 2.63712 -1.73582 -1.66191
lowerback -1.21305 1.44018 -1.49234
upperback -0.736201 1.93511 -1.23667
thorax -0.0807177 0.969624 -0.408335
lowerneck -11.6837 -2.97925 -3.17698
upperneck 36.4916 -4.5014 2.48787
head 14.6917 -2.04528 0.884095
rclavicle -6.18717e-015 1.03368e-014
rhumerus -23.8801 44.3259 -81.9772
rradius 96.0489
rwrist -10.5754
rhand -0.893839 -51.1409
rfingers 7.12502
rthumb 24.734 -79.5619
lclavicle -6.18717e-015 1.03368e-014
lhumerus -31.7435 -31.9161 102.351
lradius 94.7793
lwrist 26.4098
lhand -16.4685 -13.7297
lfingers 7.12502
lthumb 9.74812 16.0247
rfemur 0 0 0
rtibia 0
rfoot 0 0
rtoes 0
lfemur -4.21769 -8.23586 -12.8721
ltibia 20.9178
lfoot -25.0377 16.8229
ltoes -53.9537
227
root -0.697232 18.6987 5.80089 2.64443 -1.85832 -1.65687
lowerback -1.09706 1.45795 -1.45382
upperback -0.764846 1.95514 -1.23451
thorax -0.17385 0.980009 -0.431256
lowerneck -11.6314 -2.96797 -3.11986
upperneck 36.6244 -4.48236 2.42038
head 14.7382 -2.03862 0.850373
rclavicle 2.45872e-014 7.15625e-015
rhumerus -23.4465 45.0483 -81.7675
rradius 96.1288
rwrist -8.8476
rhand -1.34297 -51.0571
rfingers 7.12502
rthumb 24.3034 -79.5364
lclavicle 2.45872e-014 7.15625e-015
lhumerus -31.5307 -32.2914 102.299
lradius 94.683
lwrist 25.8279
lhand -16.7429 -13.7809
lfingers 7.12502
lthumb 9.48343 15.9857
rfemur 0 0 0
rtibia 0
rfoot 0 0
rtoes 0
lfemur -4.20967 -8.25006 -12.8864
ltibia 20.9182
lfoot -25.1254 16.8802
ltoes -53.8474
228
root -0.696088 18.7005 5.79458 2.65535 -1.98626 -1.70286
lowerback -0.987699 1.46969 -1.31069
upperback -0.762798 1.96726 -1.24632
thorax -0.227771 0.985739 -0.526277
lowerneck -11.6626 -2.95529 -3.12072
upperneck 36.7672 -4.49767 2.49702
head 14.8168 -2.0344 0.879942
rclavicle -7.37988e-015 7.95139e-015
rhumerus -22.8306 45.6707 -81.5401
rradius 96.0673
rwrist -7.70943
rhand -1.81151 -51.169
rfingers 7.12502
rthumb 23.8542 -79.7078
lclavicle -7.37988e-015 7.95139e-015
lhumerus -31.2518 -32.6081 102.2
lradius 94.5706
lwrist 25.5073
lhand -16.8907 -14.0136
lfingers 7.12502
lthumb 9.34084 15.7594
rfemur 0 0 0
rtibia 0
rfoot 0 0
rtoes 0
lfemur -4.21333 -8.27845 -12.8513
ltibia 20.9208
lfoot -25.2037 17.0055
ltoes -53.749
229
root -0.69371 18.7016 5.78675 2.66269 -2.09616 -1.71873
lowerback -0.832502 1.46533 -1.20059
upperback -0.787126 1.95703 -1.25726
thorax -0.335499 0.980549 -0.603931
lowerneck -11.6496 -2.93656 -3.12295
upperneck 36.8808 -4.49841 2.55847
head 14.8705 -2.02699 0.906424
rclavicle 2.79044e-014 3.97569e-015
rhumerus -22.235 46.2833 -81.3361
rradius 95.9885
rwrist -7.14046
rhand -2.1237 -51.2348
rfingers 7.12502
rthumb 23.5547 -79.8123
lclavicle 2.79044e-014 3.97569e-015
lhumerus -31.0473 -32.7914 102.157
lradius 94.5235
lwrist 25.0121
lhand -16.8887 -14.3428
lfingers 7.12502
lthumb 9.34274 15.4302
rfemur 0 0 0
rtibia 0
rfoot 0 0
rtoes 0
lfemur -4.22575 -8.25454 -12.8498
ltibia 20.9241
lfoot -25.237 17.0953
ltoes -53.7466
230
root -0.691507 18.7007 5.77997 2.66331 -2.20137 -1.70023
lowerback -0.669597 1.46939 -1.16792
upperback -0.818411 1.95843 -1.24704
thorax -0.458027 0.981512 -0.616973
lowerneck -11.61 -2.91666 -3.06718
upperneck 36.9763 -4.46694 2.4973
head 14.9022 -2.01435 0.877089
rclavicle -2.03133e-014 1.03368e-014
rhumerus -21.6847 46.8717 -81.0583
rradius 95.9194
rwrist -7.27608
rhand -2.18204 -51.3018
rfingers 7.12502
rthumb 23.4988 -79.8866
lclavicle -2.03133e-014 1.03368e-014
lhumerus -30.8523 -32.9172 102.168
lradius 94.4913
lwrist 24.5085
lhand -16.8096 -14.6156
lfingers 7.12502
lthumb 9.41908 15.1539
rfemur 0 0 0
rtibia 0
rfoot 0 0
rtoes 0
lfemur -4.22605 -8.19622 -12.8894
ltibia 20.9267
lfoot -25.2452 17.1419
ltoes -53.8066
231
root -0.6892 18.6997 5.77445 2.6633 -2.28863 -1.66144
lowerback -0.558116 1.47866 -1.16249
upperback -0.81496 1.9686 -1.23552
thorax -0.517143 0.986754 -0.611392
lowerneck -11.5984 -2.88516 -3.05644
upperneck 37.023 -4.42598 2.50028
head 14.9201 -1.99485 0.883435
rclavicle -1.56543e-015 1.59028e-015
rhumerus -21.013 47.4169 -80.6019
rradius 95.8144
rwrist -8.19489
rhand -2.26535 -51.6968
rfingers 7.12502
rthumb 23.4189 -80.2917
lclavicle -1.56543e-015 1.59028e-015
lhumerus -30.5829 -33.0301 102.133
lradius 94.4207
lwrist 24.5632
lhand -16.6272 -14.9299
lfingers 7.12502
lthumb 9.59507 14.8316
rfemur 0 0 0
rtibia 0
rfoot 0 0
rtoes 0
lfemur -4.2195 -8.18901 -12.9567
ltibia 20.9285
lfoot -25.252 17.2179
ltoes -53.8794
232
root -0.688904 18.7003 5.76906 2.65699 -2.33861 -1.65597
lowerback -0.445612 1.4755 -1.13175
upperback -0.807649 1.9623 -1.21789
thorax -0.572274 0.983619 -0.613665
lowerneck -11.5527 -2.85573 -3.04145
upperneck 37.0108 -4.38404 2.49284
head 14.9011 -1.9765 0.885031
rclavicle -9.11925e-015 -7.95139e-015
rhumerus -20.2513 47.8964 -80.0351
rradius 95.6788
rwrist -9.76833
rhand -2.23571 -52.1704
rfingers 7.12502
rthumb 23.4473 -80.7618
lclavicle -9.11925e-015 -7.95139e-015
lhumerus -30.3431 -33.0439 102.058
lradius 94.4634
lwrist 25.3432
lhand -16.2829 -14.9658
lfingers 7.12502
lthumb 9.92723 14.7801
rfemur 0 0 0
rtibia 0
rfoot 0 0
rtoes 0
lfemur -4.2136 -8.19781 -12.969
ltibia 20.931
lfoot -25.2689 17.2471
ltoes -53.8666
233
root -0.690264 18.7014 5.76327 2.64131 -2.3687 -1.72727
lowerback -0.309128 1.47228 -1.03791
upperback -0.798486 1.95578 -1.17768
thorax -0.637609 0.980086 -0.628749
lowerneck -11.5341 -2.84202 -2.99152
upperneck 37.0105 -4.36014 2.44455
head 14.8925 -1.96605 0.860133
rclavicle -3.40916e-014 0
rhumerus -19.4513 48.2473 -79.3587
rradius 95.5528
rwrist -11.9654
rhand -1.99436 -52.4334
rfingers 7.12502
rthumb 23.6788 -80.995
lclavicle -3.40916e-014 0
lhumerus -30.1251 -32.9742 101.916
lradius 94.7173
lwrist 26.9828
lhand -15.8814 -14.5932
lfingers 7.12502
lthumb 10.3146 15.1338
rfemur 0 0 0
rtibia 0
rfoot 0 0
rtoes 0
lfemur -4.20998 -8.14296 -12.8771
ltibia 20.9328
lfoot -25.2759 17.1971
ltoes -53.8161
234
root -0.690907 18.7022 5.75825 2.62777 -2.39613 -1.75301
lowerback -0.295267 1.46098 -1.00146
upperback -0.724375 1.94184 -1.14171
thorax -0.569572 0.972801 -0.611367
lowerneck -11.5723 -2.81802 -2.93651
upperneck 36.9773 -4.321 2.40001
head 14.8807 -1.94731 0.837379
rclavicle -8.10048e-015 6.36111e-015
rhumerus -18.5233 48.4758 -78.5005
rradius 95.5023
rwrist -14.7997
rhand -1.28551 -52.5039
rfingers 7.12502
rthumb 24.3585 -80.9758
lclavicle -8.10048e-015 6.36111e-015
lhumerus -29.8026 -32.7908 101.618
lradius 95.0742
lwrist 29.5416
lhand -15.4097 -14.1468
lfingers 7.12502
lthumb 10.7695 15.5571
rfemur 0 0 0
rtibia 0
rfoot 0 0
rtoes 0
lfemur -4.2129 -8.09843 -12.841
ltibia 20.9326
lfoot -25.2849 17.1749
ltoes -53.7761
235
root -0.690464 18.7026 5.7542 2.61409 -2.4273 -1.68641
lowerback -0.407853 1.42446 -1.05928
upperback -0.596913 1.89724 -1.11801
thorax -0.378858 0.950246 -0.549338
lowerneck -11.5849 -2.76828 -2.83042
upperneck 36.866 -4.22054 2.26196
head 14.8186 -1.90871 0.776471
rclavicle 3.00662e-015 4.77083e-015
rhumerus -17.4814 48.6414 -77.5008
rradius 95.5707
rwrist -17.9926
rhand -0.115945 -52.6937
rfingers 7.12502
rthumb 25.4793 -81.0104
lclavicle 3.00662e-015 4.77083e-015
lhumerus -29.3751 -32.3823 101.186
lradius 95.4559
lwrist 32.7236
lhand -14.8405 -13.7612
lfingers 7.12502
lthumb 11.3186 15.9134
rfemur 0 0 0
rtibia 0
rfoot 0 0
rtoes 0
lfemur -4.19957 -8.08707 -12.9209
ltibia 20.9276
lfoot -25.2938 17.1897
ltoes -53.7205
